<?xml version="1.0" encoding="utf-8"?>
<!-- Generator: Adobe Illustrator 26.0.3, SVG Export Plug-In . SVG Version: 6.00 Build 0)  -->
<svg version="1.1" id="Layer_1" xmlns="http://www.w3.org/2000/svg" xmlns:xlink="http://www.w3.org/1999/xlink" x="0px" y="0px"
	 viewBox="0 0 1024 1024" style="enable-background:new 0 0 1024 1024;" xml:space="preserve">
<style type="text/css">
	.st0{fill:none;}
	.st1{fill:#FF8600;}
	.st2{fill:url(#SVGID_1_);}
	.st3{fill:url(#SVGID_00000116220206057127523390000006464035060186333591_);}
	.st4{fill:url(#SVGID_00000156571440136370190870000010227058113344168630_);}
	.st5{fill:url(#SVGID_00000103249757973571430980000014979547739416096942_);}
	.st6{fill:url(#SVGID_00000145771300853673969840000008244739853790070439_);}
	.st7{fill:url(#SVGID_00000165226323245441968000000003257334403195660478_);}
	.st8{fill:url(#SVGID_00000127739093151749668340000008749400958070769804_);}
	.st9{fill:url(#SVGID_00000080918271871260867740000015649939347031810730_);}
	.st10{fill:url(#SVGID_00000147918600661740727800000003065942609955191706_);}
	.st11{fill:url(#SVGID_00000039095737561990157980000005164499649071334079_);}
	.st12{fill:url(#SVGID_00000075873283901606394660000015978226505237175168_);}
	.st13{fill:url(#SVGID_00000134216861494969005990000007063753863874692526_);}
	.st14{fill:url(#SVGID_00000003102916709718813610000013062943779449298065_);}
	.st15{fill:url(#SVGID_00000078041055487554232260000000911175772626536113_);}
	.st16{fill:url(#SVGID_00000158720704321782853170000007880533944045311662_);}
	.st17{fill:url(#SVGID_00000043445338733487192920000012145339064171334312_);}
	.st18{fill:url(#SVGID_00000054975809897409726350000015251386368918972819_);}
	.st19{fill:url(#SVGID_00000061467583787665372000000013438886644947475605_);}
	.st20{fill:#FFF6DF;}
</style>
<g id="Layer_2">
	<g>
		<path class="st0" d="M96.96,409.13c0.57-2.29,1.15-4.57,1.76-6.85C98.12,404.56,97.53,406.84,96.96,409.13z"/>
		<path class="st0" d="M103.12,386.86c1.46-4.77,3-9.5,4.62-14.19C106.12,377.36,104.58,382.09,103.12,386.86z"/>
		<path class="st0" d="M98.89,401.63c1.28-4.79,2.63-9.54,4.07-14.25C101.53,392.09,100.17,396.84,98.89,401.63z"/>
		<path class="st0" d="M95.18,416.65c0.55-2.41,1.12-4.81,1.71-7.2C96.29,411.85,95.72,414.25,95.18,416.65z"/>
		<path class="st0" d="M86.27,551.21c0.19,2.11,0.4,4.21,0.62,6.31C86.67,555.42,86.46,553.31,86.27,551.21L86.27,551.21z"/>
		<path class="st0" d="M93.59,423.92c0.46-2.19,0.94-4.38,1.43-6.56C94.53,419.54,94.05,421.72,93.59,423.92z"/>
		<path class="st0" d="M88.14,455.92c-0.31,2.38-0.61,4.77-0.88,7.16h0C87.53,460.69,87.83,458.31,88.14,455.92z"/>
		<path class="st0" d="M181.11,241.43c-31.63,38.59-56.63,82.81-73.27,130.94C124.48,324.25,149.49,280.02,181.11,241.43
			L181.11,241.43z"/>
		<path class="st0" d="M423.85,93.93L423.85,93.93c-67.23,14.03-128.65,43.87-180.2,85.45l0.01,0.01
			C295.21,137.8,356.63,107.96,423.85,93.93z"/>
		<path class="st0" d="M87.63,564.02c-0.23-1.92-0.45-3.85-0.66-5.78C87.18,560.17,87.4,562.1,87.63,564.02z"/>
		<path class="st0" d="M91.64,590.19c-0.37-2.02-0.73-4.05-1.08-6.08C90.9,586.14,91.26,588.17,91.64,590.19z"/>
		<path class="st0" d="M90.52,583.88c-1.08-6.36-2.02-12.78-2.81-19.23C88.5,571.1,89.44,577.52,90.52,583.88z"/>
		<path class="st0" d="M938.57,501.97c0.08,3.33,0.12,6.68,0.12,10.03C938.69,508.65,938.65,505.3,938.57,501.97z"/>
		<path class="st0" d="M97.22,615.9c11.54,46.17,30.59,89.36,55.78,128.21l0.01-0.01C127.82,705.26,108.76,662.07,97.22,615.9z"/>
		<path class="st0" d="M89.34,447.42c0.36-2.39,0.75-4.78,1.15-7.16C90.09,442.64,89.7,445.03,89.34,447.42z"/>
		<path class="st0" d="M88.33,454.5c0.3-2.25,0.62-4.49,0.96-6.73C88.95,450.01,88.64,452.25,88.33,454.5z"/>
		<path class="st0" d="M90.7,439.06c0.38-2.18,0.76-4.35,1.17-6.52C91.47,434.71,91.08,436.88,90.7,439.06z"/>
		<path class="st0" d="M91.99,431.93c0.45-2.39,0.93-4.78,1.42-7.16C92.92,427.15,92.44,429.53,91.99,431.93z"/>
		<path class="st0" d="M97.22,615.87c-2.08-8.33-3.92-16.75-5.5-25.26C93.3,599.13,95.14,607.55,97.22,615.87z"/>
		<path class="st0" d="M511.59,939.1c235.9,0,427.1-191.2,427.1-427.1C938.69,747.88,747.47,939.1,511.59,939.1z"/>
		<path class="st0" d="M938.55,500.98C932.71,270.28,743.98,85.07,511.91,84.9l0,0C743.96,85.07,932.71,270.3,938.55,500.98z"/>
		<path class="st0" d="M208.57,813c55.25,55.62,125.72,96.11,204.64,114.71C334.3,909.11,263.84,868.61,208.57,813L208.57,813z"/>
		<path class="st0" d="M413.46,927.77c2.52,0.59,5.04,1.16,7.57,1.71v0C418.5,928.93,415.97,928.36,413.46,927.77z"/>
		<path class="st0" d="M509.15,939.08c0.81,0,1.63,0.02,2.44,0.02C510.77,939.1,509.96,939.09,509.15,939.08L509.15,939.08z"/>
		<path class="st1" d="M87.71,564.65c-0.03-0.21-0.05-0.42-0.08-0.63C87.66,564.23,87.68,564.44,87.71,564.65z"/>
		<linearGradient id="SVGID_1_" gradientUnits="userSpaceOnUse" x1="-79.6807" y1="788.0826" x2="472.894" y2="49.2979">
			<stop  offset="0" style="stop-color:#0097FF"/>
			<stop  offset="1" style="stop-color:#0025D4"/>
		</linearGradient>
		<path class="st2" d="M87.71,564.65c-0.03-0.21-0.05-0.42-0.08-0.63C87.66,564.23,87.68,564.44,87.71,564.65z"/>
		<path class="st1" d="M90.56,584.11c-0.01-0.08-0.03-0.15-0.04-0.23C90.53,583.96,90.55,584.03,90.56,584.11z"/>
		
			<linearGradient id="SVGID_00000178187386784139098310000007009551375146380695_" gradientUnits="userSpaceOnUse" x1="-68.4126" y1="796.5106" x2="484.1621" y2="57.7259">
			<stop  offset="0" style="stop-color:#0097FF"/>
			<stop  offset="1" style="stop-color:#0025D4"/>
		</linearGradient>
		<path style="fill:url(#SVGID_00000178187386784139098310000007009551375146380695_);" d="M90.56,584.11
			c-0.01-0.08-0.03-0.15-0.04-0.23C90.53,583.96,90.55,584.03,90.56,584.11z"/>
		<path class="st1" d="M421.03,929.48l0.32,86.6c28.52,5.07,57.85,7.77,87.8,7.91v-84.9C478.93,938.92,449.45,935.61,421.03,929.48z
			"/>
		<path class="st1" d="M153.01,744.11l-61.66,60.45c16.85,24.15,35.72,46.79,56.38,67.65L208.57,813
			C187.77,792.06,169.13,768.98,153.01,744.11z"/>
		<path class="st1" d="M938.55,500.98c0.01,0.33,0.01,0.66,0.02,0.99C938.56,501.64,938.56,501.31,938.55,500.98z"/>
		
			<linearGradient id="SVGID_00000168804074998398270090000008100843490139926405_" gradientUnits="userSpaceOnUse" x1="435.81" y1="1173.6444" x2="988.3848" y2="434.8598">
			<stop  offset="0" style="stop-color:#0097FF"/>
			<stop  offset="1" style="stop-color:#0025D4"/>
		</linearGradient>
		<path style="fill:url(#SVGID_00000168804074998398270090000008100843490139926405_);" d="M938.55,500.98
			c0.01,0.33,0.01,0.66,0.02,0.99C938.56,501.64,938.56,501.31,938.55,500.98z"/>
		<path class="st1" d="M91.72,590.61c-0.03-0.14-0.05-0.29-0.08-0.43C91.66,590.33,91.69,590.47,91.72,590.61z"/>
		
			<linearGradient id="SVGID_00000163770929421315347290000003028227884119756965_" gradientUnits="userSpaceOnUse" x1="-64.61" y1="799.3547" x2="487.9647" y2="60.5701">
			<stop  offset="0" style="stop-color:#0097FF"/>
			<stop  offset="1" style="stop-color:#0025D4"/>
		</linearGradient>
		<path style="fill:url(#SVGID_00000163770929421315347290000003028227884119756965_);" d="M91.72,590.61
			c-0.03-0.14-0.05-0.29-0.08-0.43C91.66,590.33,91.69,590.47,91.72,590.61z"/>
		<path class="st1" d="M413.46,927.77c-0.08-0.02-0.16-0.04-0.24-0.06C413.3,927.73,413.38,927.75,413.46,927.77z"/>
		
			<linearGradient id="SVGID_00000044900669801863479760000005193198044094683537_" gradientUnits="userSpaceOnUse" x1="303.4557" y1="1074.6499" x2="770.2651" y2="450.5324">
			<stop  offset="0" style="stop-color:#0097FF"/>
			<stop  offset="1" style="stop-color:#0025D4"/>
		</linearGradient>
		<path style="fill:url(#SVGID_00000044900669801863479760000005193198044094683537_);" d="M413.46,927.77
			c-0.08-0.02-0.16-0.04-0.24-0.06C413.3,927.73,413.38,927.75,413.46,927.77z"/>
		<path class="st1" d="M97.22,615.9c0-0.01-0.01-0.02-0.01-0.03C97.22,615.88,97.22,615.89,97.22,615.9z"/>
		
			<linearGradient id="SVGID_00000009549883512234589000000015617573465889905836_" gradientUnits="userSpaceOnUse" x1="49.9934" y1="679.0292" x2="144.4334" y2="552.7642">
			<stop  offset="0" style="stop-color:#0097FF"/>
			<stop  offset="1" style="stop-color:#0025D4"/>
		</linearGradient>
		<path style="fill:url(#SVGID_00000009549883512234589000000015617573465889905836_);" d="M97.22,615.9c0-0.01-0.01-0.02-0.01-0.03
			C97.22,615.88,97.22,615.89,97.22,615.9z"/>
		<path class="st1" d="M91.87,432.54c0.04-0.2,0.07-0.41,0.11-0.61C91.95,432.13,91.91,432.34,91.87,432.54z"/>
		
			<linearGradient id="SVGID_00000002361403678121026180000017092122503775083152_" gradientUnits="userSpaceOnUse" x1="-140.3099" y1="742.7349" x2="412.2648" y2="3.9503">
			<stop  offset="0" style="stop-color:#0097FF"/>
			<stop  offset="1" style="stop-color:#0025D4"/>
		</linearGradient>
		<path style="fill:url(#SVGID_00000002361403678121026180000017092122503775083152_);" d="M91.87,432.54
			c0.04-0.2,0.07-0.41,0.11-0.61C91.95,432.13,91.91,432.34,91.87,432.54z"/>
		<path class="st1" d="M98.72,402.28c0.06-0.22,0.11-0.43,0.17-0.65C98.83,401.85,98.78,402.06,98.72,402.28z"/>
		
			<linearGradient id="SVGID_00000046298490111893958940000002332656195999440257_" gradientUnits="userSpaceOnUse" x1="-150.4232" y1="735.1707" x2="402.1516" y2="-3.614">
			<stop  offset="0" style="stop-color:#0097FF"/>
			<stop  offset="1" style="stop-color:#0025D4"/>
		</linearGradient>
		<path style="fill:url(#SVGID_00000046298490111893958940000002332656195999440257_);" d="M98.72,402.28
			c0.06-0.22,0.11-0.43,0.17-0.65C98.83,401.85,98.78,402.06,98.72,402.28z"/>
		<path class="st1" d="M96.88,409.45c0.03-0.11,0.05-0.22,0.08-0.32C96.94,409.24,96.91,409.35,96.88,409.45z"/>
		
			<linearGradient id="SVGID_00000042723142573657989370000015807350420502928544_" gradientUnits="userSpaceOnUse" x1="-148.1111" y1="736.9" x2="404.4637" y2="-1.8846">
			<stop  offset="0" style="stop-color:#0097FF"/>
			<stop  offset="1" style="stop-color:#0025D4"/>
		</linearGradient>
		<path style="fill:url(#SVGID_00000042723142573657989370000015807350420502928544_);" d="M96.88,409.45
			c0.03-0.11,0.05-0.22,0.08-0.32C96.94,409.24,96.91,409.35,96.88,409.45z"/>
		<path class="st1" d="M511.59,84.9c0.11,0,0.21,0,0.32,0L511.59,0c-29.92,0-59.23,2.57-87.74,7.5v86.43
			C452.17,88.01,481.52,84.9,511.59,84.9z"/>
		<path class="st1" d="M102.96,387.37c0.05-0.17,0.1-0.34,0.16-0.51C103.07,387.03,103.02,387.2,102.96,387.37z"/>
		
			<linearGradient id="SVGID_00000126312580166527645440000014469529303254232205_" gradientUnits="userSpaceOnUse" x1="-154.8233" y1="731.8796" x2="397.7514" y2="-6.9051">
			<stop  offset="0" style="stop-color:#0097FF"/>
			<stop  offset="1" style="stop-color:#0025D4"/>
		</linearGradient>
		<path style="fill:url(#SVGID_00000126312580166527645440000014469529303254232205_);" d="M102.96,387.37
			c0.05-0.17,0.1-0.34,0.16-0.51C103.07,387.03,103.02,387.2,102.96,387.37z"/>
		<path class="st1" d="M95.02,417.36c0.05-0.23,0.1-0.47,0.16-0.7C95.12,416.89,95.07,417.12,95.02,417.36z"/>
		
			<linearGradient id="SVGID_00000026873738001759098680000017159357550934129563_" gradientUnits="userSpaceOnUse" x1="-145.5829" y1="738.791" x2="406.9918" y2="6.298603e-03">
			<stop  offset="0" style="stop-color:#0097FF"/>
			<stop  offset="1" style="stop-color:#0025D4"/>
		</linearGradient>
		<path style="fill:url(#SVGID_00000026873738001759098680000017159357550934129563_);" d="M95.02,417.36
			c0.05-0.23,0.1-0.47,0.16-0.7C95.12,416.89,95.07,417.12,95.02,417.36z"/>
		<path class="st1" d="M86.97,558.24c-0.03-0.24-0.05-0.48-0.08-0.72C86.92,557.76,86.95,558,86.97,558.24z"/>
		
			<linearGradient id="SVGID_00000135674181934089807990000009828346574871118760_" gradientUnits="userSpaceOnUse" x1="-83.2521" y1="785.4114" x2="469.3226" y2="46.6267">
			<stop  offset="0" style="stop-color:#0097FF"/>
			<stop  offset="1" style="stop-color:#0025D4"/>
		</linearGradient>
		<path style="fill:url(#SVGID_00000135674181934089807990000009828346574871118760_);" d="M86.97,558.24
			c-0.03-0.24-0.05-0.48-0.08-0.72C86.92,557.76,86.95,558,86.97,558.24z"/>
		<path class="st1" d="M107.74,372.67c0.03-0.1,0.07-0.2,0.1-0.3C107.81,372.47,107.77,372.57,107.74,372.67z"/>
		
			<linearGradient id="SVGID_00000155847970006157545040000002842915842311331485_" gradientUnits="userSpaceOnUse" x1="-158.7814" y1="728.9191" x2="393.7933" y2="-9.8655">
			<stop  offset="0" style="stop-color:#0097FF"/>
			<stop  offset="1" style="stop-color:#0025D4"/>
		</linearGradient>
		<path style="fill:url(#SVGID_00000155847970006157545040000002842915842311331485_);" d="M107.74,372.67
			c0.03-0.1,0.07-0.2,0.1-0.3C107.81,372.47,107.77,372.57,107.74,372.67z"/>
		<path class="st1" d="M84.49,512c0-16.54,0.94-32.86,2.77-48.91L1.88,463.4c-1.51,16-2.29,32.2-2.29,48.6
			c0,13.19,0.5,26.27,1.48,39.21l85.2,0C85.1,538.29,84.49,525.22,84.49,512z"/>
		<path class="st1" d="M89.29,447.77c0.02-0.12,0.03-0.23,0.05-0.35C89.32,447.54,89.31,447.66,89.29,447.77z"/>
		
			<linearGradient id="SVGID_00000107557894916836423730000007833224618774672006_" gradientUnits="userSpaceOnUse" x1="-134.6168" y1="746.9931" x2="417.958" y2="8.2084">
			<stop  offset="0" style="stop-color:#0097FF"/>
			<stop  offset="1" style="stop-color:#0025D4"/>
		</linearGradient>
		<path style="fill:url(#SVGID_00000107557894916836423730000007833224618774672006_);" d="M89.29,447.77
			c0.02-0.12,0.03-0.23,0.05-0.35C89.32,447.54,89.31,447.66,89.29,447.77z"/>
		<path class="st1" d="M88.14,455.92c0.06-0.47,0.13-0.95,0.19-1.42C88.27,454.98,88.21,455.45,88.14,455.92z"/>
		
			<linearGradient id="SVGID_00000020377347624992615000000005605426808873452942_" gradientUnits="userSpaceOnUse" x1="-131.6546" y1="749.2087" x2="420.9202" y2="10.424">
			<stop  offset="0" style="stop-color:#0097FF"/>
			<stop  offset="1" style="stop-color:#0025D4"/>
		</linearGradient>
		<path style="fill:url(#SVGID_00000020377347624992615000000005605426808873452942_);" d="M88.14,455.92
			c0.06-0.47,0.13-0.95,0.19-1.42C88.27,454.98,88.21,455.45,88.14,455.92z"/>
		<path class="st1" d="M90.49,440.26c0.07-0.4,0.14-0.8,0.21-1.2C90.63,439.46,90.56,439.86,90.49,440.26z"/>
		
			<linearGradient id="SVGID_00000119092874341368738070000005266772584872368283_" gradientUnits="userSpaceOnUse" x1="-137.6012" y1="744.7609" x2="414.9735" y2="5.9762">
			<stop  offset="0" style="stop-color:#0097FF"/>
			<stop  offset="1" style="stop-color:#0025D4"/>
		</linearGradient>
		<path style="fill:url(#SVGID_00000119092874341368738070000005266772584872368283_);" d="M90.49,440.26
			c0.07-0.4,0.14-0.8,0.21-1.2C90.63,439.46,90.56,439.86,90.49,440.26z"/>
		<path class="st1" d="M93.41,424.77c0.06-0.28,0.12-0.57,0.18-0.85C93.53,424.2,93.47,424.48,93.41,424.77z"/>
		
			<linearGradient id="SVGID_00000123421243893698117630000002911726840745698488_" gradientUnits="userSpaceOnUse" x1="-143.0883" y1="740.6568" x2="409.4865" y2="1.8722">
			<stop  offset="0" style="stop-color:#0097FF"/>
			<stop  offset="1" style="stop-color:#0025D4"/>
		</linearGradient>
		<path style="fill:url(#SVGID_00000123421243893698117630000002911726840745698488_);" d="M93.41,424.77
			c0.06-0.28,0.12-0.57,0.18-0.85C93.53,424.2,93.47,424.48,93.41,424.77z"/>
		<path class="st1" d="M243.65,179.37l-60.56-60.12c-22.47,18.82-43.31,39.53-62.26,61.89l60.29,60.29
			C199.77,218.66,220.73,197.86,243.65,179.37z"/>
		
			<linearGradient id="SVGID_00000028307677421369688350000012399875124382363044_" gradientUnits="userSpaceOnUse" x1="77.73" y1="1021.9716" x2="681.5816" y2="214.6305">
			<stop  offset="0" style="stop-color:#0097FF"/>
			<stop  offset="1" style="stop-color:#00C95B"/>
		</linearGradient>
		<path style="fill:url(#SVGID_00000028307677421369688350000012399875124382363044_);" d="M511.59,84.9c0.11,0,0.21,0,0.32,0l0,0
			c232.05,0.17,420.8,185.4,426.65,416.08c0.01,0.33,0.01,0.66,0.02,0.99c0.08,3.33,0.12,6.68,0.12,10.03
			c0,235.88-191.22,427.1-427.1,427.1c-0.82,0-1.63-0.01-2.44-0.02v0c-30.22-0.17-59.69-3.47-88.12-9.61v0
			c-2.53-0.55-5.06-1.12-7.57-1.71c-0.08-0.02-0.16-0.04-0.24-0.06c-78.92-18.6-149.38-59.1-204.64-114.72l-0.01,0.01
			c-20.8-20.94-39.44-44.02-55.57-68.89l0.01-0.01c-25.19-38.84-44.25-82.03-55.79-128.2c0-0.01-0.01-0.02-0.01-0.03
			c-2.08-8.33-3.92-16.75-5.5-25.26c-0.03-0.14-0.05-0.29-0.08-0.43c-0.37-2.02-0.73-4.05-1.08-6.08c-0.01-0.08-0.03-0.15-0.04-0.23
			c-1.08-6.36-2.02-12.78-2.81-19.23c-0.03-0.21-0.05-0.42-0.08-0.63c-0.23-1.92-0.45-3.85-0.66-5.78
			c-0.03-0.24-0.05-0.48-0.08-0.72c-0.22-2.1-0.43-4.2-0.62-6.31h0c-1.17-12.91-1.78-25.99-1.78-39.21
			c0-16.54,0.94-32.86,2.77-48.91h0c0.27-2.39,0.57-4.78,0.88-7.16c0.06-0.47,0.13-0.95,0.19-1.42c0.3-2.25,0.62-4.49,0.96-6.73
			c0.02-0.12,0.03-0.23,0.05-0.35c0.36-2.39,0.75-4.78,1.15-7.16c0.07-0.4,0.14-0.8,0.21-1.2c0.38-2.18,0.76-4.35,1.17-6.52
			c0.04-0.2,0.07-0.41,0.11-0.61c0.45-2.39,0.93-4.78,1.42-7.16c0.06-0.28,0.12-0.57,0.18-0.85c0.46-2.19,0.94-4.38,1.43-6.56
			c0.05-0.23,0.1-0.47,0.16-0.7c0.55-2.41,1.12-4.81,1.71-7.2c0.03-0.11,0.05-0.22,0.08-0.32c0.57-2.29,1.15-4.57,1.76-6.85
			c0.06-0.22,0.11-0.43,0.17-0.65c1.28-4.79,2.63-9.54,4.07-14.25c0.05-0.17,0.1-0.34,0.16-0.51c1.46-4.77,3-9.5,4.62-14.19
			c0.03-0.1,0.07-0.2,0.1-0.3c16.64-48.12,41.65-92.35,73.27-130.93l-0.01-0.01c18.66-22.77,39.62-43.57,62.54-62.06l0.01,0.01
			c51.55-41.58,112.98-71.42,180.2-85.45v0C452.17,88.01,481.52,84.9,511.59,84.9z M421.03,929.48l0.32,86.6
			c28.52,5.07,57.85,7.77,87.8,7.91v-84.9C478.93,938.92,449.45,935.61,421.03,929.48z M153.01,744.11l-61.66,60.45
			c16.85,24.15,35.72,46.79,56.38,67.65L208.57,813C187.77,792.06,169.13,768.98,153.01,744.11z M511.59,84.9c0.11,0,0.21,0,0.32,0
			L511.59,0c-29.92,0-59.23,2.57-87.74,7.5v86.43C452.17,88.01,481.52,84.9,511.59,84.9z M84.49,512c0-16.54,0.94-32.86,2.77-48.91
			L1.88,463.4c-1.51,16-2.29,32.2-2.29,48.6c0,13.19,0.5,26.27,1.48,39.21l85.2,0C85.1,538.29,84.49,525.22,84.49,512z
			 M243.65,179.37l-60.56-60.12c-22.47,18.82-43.31,39.53-62.26,61.89l60.29,60.29C199.77,218.66,220.73,197.86,243.65,179.37z"/>
		<path class="st20" d="M243.65,179.37l-60.56-60.12C250.72,62.63,333.2,23.15,423.85,7.5v86.43
			C356.62,107.96,295.2,137.79,243.65,179.37z M413.46,927.77c-0.08-0.02-0.16-0.04-0.24-0.06
			C334.3,909.11,263.83,868.62,208.57,813l-60.85,59.21c72.72,73.45,167.51,125,273.63,143.86l-0.32-86.6
			C418.5,928.93,415.97,928.36,413.46,927.77z M97.22,615.9c0-0.01-0.01-0.02-0.01-0.03c-2.08-8.33-3.92-16.75-5.5-25.26
			c-0.03-0.14-0.05-0.29-0.08-0.43c-0.37-2.02-0.73-4.05-1.08-6.08c-0.01-0.08-0.03-0.15-0.04-0.23
			c-1.08-6.36-2.02-12.78-2.81-19.23c-0.03-0.21-0.05-0.42-0.08-0.63c-0.23-1.92-0.45-3.85-0.66-5.78
			c-0.03-0.24-0.05-0.48-0.08-0.72c-0.22-2.1-0.43-4.2-0.62-6.31l-85.2,0c7.1,93.77,39.45,180.48,90.27,253.35l61.66-60.45
			C127.81,705.27,108.76,662.08,97.22,615.9z M511.59,0l0.32,84.9c232.07,0.17,420.8,185.38,426.65,416.08
			c0.01,0.33,0.01,0.66,0.02,0.99c0.08,3.33,0.12,6.68,0.12,10.03c0,235.9-191.2,427.1-427.1,427.1c-0.82,0-1.63-0.01-2.44-0.02
			v84.9c0.81,0,1.63,0.02,2.44,0.02c282.8,0,512-229.2,512-512S794.39,0,511.59,0z M88.14,455.92c0.06-0.47,0.13-0.95,0.19-1.42
			c0.3-2.25,0.62-4.49,0.96-6.73c0.02-0.12,0.03-0.23,0.05-0.35c0.36-2.39,0.75-4.78,1.15-7.16c0.07-0.4,0.14-0.8,0.21-1.2
			c0.37-2.18,0.76-4.35,1.17-6.52c0.04-0.2,0.07-0.41,0.11-0.61c0.45-2.39,0.93-4.78,1.42-7.16c0.06-0.28,0.12-0.57,0.18-0.85
			c0.46-2.19,0.94-4.38,1.43-6.56c0.05-0.23,0.1-0.47,0.16-0.7c0.55-2.41,1.12-4.81,1.71-7.2c0.03-0.11,0.05-0.22,0.08-0.32
			c0.57-2.29,1.15-4.57,1.76-6.85c0.06-0.22,0.11-0.43,0.17-0.65c1.28-4.79,2.63-9.54,4.07-14.25c0.05-0.17,0.1-0.34,0.16-0.51
			c1.46-4.77,3-9.5,4.62-14.19c0.03-0.1,0.07-0.2,0.1-0.3c16.64-48.13,41.64-92.35,73.27-130.94l-60.29-60.29
			C55.02,258.78,11.96,356.29,1.88,463.4l85.39-0.32C87.53,460.69,87.83,458.31,88.14,455.92z M386.03,320.36v402.3l348.4-201.15
			L386.03,320.36z"/>
	</g>
</g>
</svg>
